name ./resultDataOpenSim/trcMotMarkerGrf/sub09/grf-13-06.mot
datacolumns 19
datarows 17
range 1.43200000 1.49600000
endheader

                time	     ground_force_vx	     ground_force_vy	     ground_force_vz	     ground_force_px	     ground_force_py	     ground_force_pz	   l_ground_force_vx	   l_ground_force_vy	   l_ground_force_vz	   l_ground_force_px	   l_ground_force_py	   l_ground_force_pz	     ground_torque_x	     ground_torque_y	     ground_torque_z	   l_ground_torque_x	   l_ground_torque_y	   l_ground_torque_z	
          1.43200000	        -34.79434232	        452.07264069	        -14.17621131	          1.10989139	          0.00000000	          0.05524421	          0.00000000	          0.00000000	          0.00000000	          0.00000000	          0.00000000	          0.00000000	          0.00000000	          2.09646297	          0.00000000	          0.00000000	          0.00000000	          0.00000000	
          1.43600000	        -30.72085273	        449.57035875	        -11.19534503	          1.11082151	          0.00000000	          0.05490004	          0.00000000	          0.00000000	          0.00000000	          0.00000000	          0.00000000	          0.00000000	          0.00000000	          2.26305212	          0.00000000	          0.00000000	          0.00000000	          0.00000000	
          1.44000000	        -27.67755501	        447.54346950	         -8.72645069	          1.11172479	          0.00000000	          0.05457249	          0.00000000	          0.00000000	          0.00000000	          0.00000000	          0.00000000	          0.00000000	          0.00000000	          2.41558206	          0.00000000	          0.00000000	          0.00000000	          0.00000000	
          1.44400000	        -26.17940110	        445.94623800	         -7.16415299	          1.11268190	          0.00000000	          0.05426215	          0.00000000	          0.00000000	          0.00000000	          0.00000000	          0.00000000	          0.00000000	          0.00000000	          2.51295624	          0.00000000	          0.00000000	          0.00000000	          0.00000000	
          1.44800000	        -26.31144856	        444.69318574	         -6.71574980	          1.11371625	          0.00000000	          0.05396605	          0.00000000	          0.00000000	          0.00000000	          0.00000000	          0.00000000	          0.00000000	          0.00000000	          2.52761502	          0.00000000	          0.00000000	          0.00000000	          0.00000000	
          1.45200000	        -27.69852611	        443.63865973	         -7.37955972	          1.11480089	          0.00000000	          0.05368220	          0.00000000	          0.00000000	          0.00000000	          0.00000000	          0.00000000	          0.00000000	          0.00000000	          2.44992797	          0.00000000	          0.00000000	          0.00000000	          0.00000000	
          1.45600000	        -29.61054919	        442.61984835	         -8.95074508	          1.11586271	          0.00000000	          0.05341191	          0.00000000	          0.00000000	          0.00000000	          0.00000000	          0.00000000	          0.00000000	          0.00000000	          2.28946045	          0.00000000	          0.00000000	          0.00000000	          0.00000000	
          1.46000000	        -31.16535383	        441.52520688	        -11.05604921	          1.11680258	          0.00000000	          0.05315720	          0.00000000	          0.00000000	          0.00000000	          0.00000000	          0.00000000	          0.00000000	          0.00000000	          2.07365954	          0.00000000	          0.00000000	          0.00000000	          0.00000000	
          1.46400000	        -31.56283010	        440.33061737	        -13.21811284	          1.11751516	          0.00000000	          0.05291420	          0.00000000	          0.00000000	          0.00000000	          0.00000000	          0.00000000	          0.00000000	          0.00000000	          1.84420740	          0.00000000	          0.00000000	          0.00000000	          0.00000000	
          1.46800000	        -30.28885241	        439.08626113	        -14.93897212	          1.11791632	          0.00000000	          0.05267047	          0.00000000	          0.00000000	          0.00000000	          0.00000000	          0.00000000	          0.00000000	          0.00000000	          1.65096507	          0.00000000	          0.00000000	          0.00000000	          0.00000000	
          1.47200000	        -27.24265220	        437.88126079	        -15.78673454	          1.11798428	          0.00000000	          0.05241130	          0.00000000	          0.00000000	          0.00000000	          0.00000000	          0.00000000	          0.00000000	          0.00000000	          1.54364439	          0.00000000	          0.00000000	          0.00000000	          0.00000000	
          1.47600000	        -22.75809276	        436.82273197	        -15.47255042	          1.11776776	          0.00000000	          0.05212324	          0.00000000	          0.00000000	          0.00000000	          0.00000000	          0.00000000	          0.00000000	          0.00000000	          1.56218330	          0.00000000	          0.00000000	          0.00000000	          0.00000000	
          1.48000000	        -17.51353384	        436.03324449	        -13.90808683	          1.11737473	          0.00000000	          0.05179371	          0.00000000	          0.00000000	          0.00000000	          0.00000000	          0.00000000	          0.00000000	          0.00000000	          1.72780722	          0.00000000	          0.00000000	          0.00000000	          0.00000000	
          1.48400000	        -12.35312793	        435.64182340	        -11.22940516	          1.11693882	          0.00000000	          0.05141395	          0.00000000	          0.00000000	          0.00000000	          0.00000000	          0.00000000	          0.00000000	          0.00000000	          2.03721316	          0.00000000	          0.00000000	          0.00000000	          0.00000000	
          1.48800000	         -8.07006019	        435.75559368	         -7.77521868	          1.11658507	          0.00000000	          0.05098336	          0.00000000	          0.00000000	          0.00000000	          0.00000000	          0.00000000	          0.00000000	          0.00000000	          2.46171628	          0.00000000	          0.00000000	          0.00000000	          0.00000000	
          1.49200000	         -5.21323026	        436.42925625	         -4.02374536	          1.11641341	          0.00000000	          0.05052455	          0.00000000	          0.00000000	          0.00000000	          0.00000000	          0.00000000	          0.00000000	          0.00000000	          2.95173252	          0.00000000	          0.00000000	          0.00000000	          0.00000000	
          1.49600000	         -3.96304576	        437.66195059	         -0.50382511	          1.11648352	          0.00000000	          0.05007917	          0.00000000	          0.00000000	          0.00000000	          0.00000000	          0.00000000	          0.00000000	          0.00000000	          3.44542571	          0.00000000	          0.00000000	          0.00000000	          0.00000000	
